<svg viewBox="0 0 800 600" xmlns="http://www.w3.org/2000/svg">
  <defs>
    <linearGradient id="flowGradient" x1="0%" y1="0%" x2="100%" y2="100%">
      <stop offset="0%" style="stop-color:#667eea;stop-opacity:1" />
      <stop offset="100%" style="stop-color:#764ba2;stop-opacity:1" />
    </linearGradient>
    <linearGradient id="stepGradient" x1="0%" y1="0%" x2="100%" y2="0%">
      <stop offset="0%" style="stop-color:#4f46e5;stop-opacity:1" />
      <stop offset="100%" style="stop-color:#7c3aed;stop-opacity:1" />
    </linearGradient>
  </defs>
  
  <!-- Background -->
  <rect width="800" height="600" fill="#f8fafc"/>
  
  <!-- Title -->
  <text x="400" y="40" text-anchor="middle" class="title" fill="#1e293b" font-size="24" font-weight="bold">Element Detection Flow</text>
  
  <!-- Step 1: Page Scan -->
  <g transform="translate(50, 100)">
    <rect x="0" y="0" width="140" height="80" rx="8" fill="url(#stepGradient)" stroke="#4338ca" stroke-width="2"/>
    <text x="70" y="35" text-anchor="middle" fill="white" font-size="14" font-weight="bold">Page Scan</text>
    <text x="70" y="55" text-anchor="middle" fill="white" font-size="12">DOM Traversal</text>
  </g>
  
  <!-- Arrow 1 -->
  <path d="M 200 140 L 240 140" stroke="#64748b" stroke-width="2" marker-end="url(#arrowhead)"/>
  
  <!-- Step 2: Element Analysis -->
  <g transform="translate(250, 100)">
    <rect x="0" y="0" width="140" height="80" rx="8" fill="url(#stepGradient)" stroke="#4338ca" stroke-width="2"/>
    <text x="70" y="35" text-anchor="middle" fill="white" font-size="14" font-weight="bold">Element Analysis</text>
    <text x="70" y="55" text-anchor="middle" fill="white" font-size="12">Attributes & Props</text>
  </g>
  
  <!-- Arrow 2 -->
  <path d="M 400 140 L 440 140" stroke="#64748b" stroke-width="2" marker-end="url(#arrowhead)"/>
  
  <!-- Step 3: Locator Generation -->
  <g transform="translate(450, 100)">
    <rect x="0" y="0" width="140" height="80" rx="8" fill="url(#stepGradient)" stroke="#4338ca" stroke-width="2"/>
    <text x="70" y="35" text-anchor="middle" fill="white" font-size="14" font-weight="bold">Locator Gen</text>
    <text x="70" y="55" text-anchor="middle" fill="white" font-size="12">CSS/XPath</text>
  </g>
  
  <!-- Arrow 3 (down) -->
  <path d="M 520 190 L 520 230" stroke="#64748b" stroke-width="2" marker-end="url(#arrowhead)"/>
  
  <!-- Step 4: Validation -->
  <g transform="translate(450, 240)">
    <rect x="0" y="0" width="140" height="80" rx="8" fill="url(#stepGradient)" stroke="#4338ca" stroke-width="2"/>
    <text x="70" y="35" text-anchor="middle" fill="white" font-size="14" font-weight="bold">Validation</text>
    <text x="70" y="55" text-anchor="middle" fill="white" font-size="12">Uniqueness Test</text>
  </g>
  
  <!-- Arrow 4 (left) -->
  <path d="M 440 280 L 400 280" stroke="#64748b" stroke-width="2" marker-end="url(#arrowhead)"/>
  
  <!-- Step 5: Result Processing -->
  <g transform="translate(250, 240)">
    <rect x="0" y="0" width="140" height="80" rx="8" fill="url(#stepGradient)" stroke="#4338ca" stroke-width="2"/>
    <text x="70" y="35" text-anchor="middle" fill="white" font-size="14" font-weight="bold">Result Process</text>
    <text x="70" y="55" text-anchor="middle" fill="white" font-size="12">Format & Export</text>
  </g>
  
  <!-- Arrow 5 (left) -->
  <path d="M 240 280 L 200 280" stroke="#64748b" stroke-width="2" marker-end="url(#arrowhead)"/>
  
  <!-- Step 6: Output -->
  <g transform="translate(50, 240)">
    <rect x="0" y="0" width="140" height="80" rx="8" fill="url(#stepGradient)" stroke="#4338ca" stroke-width="2"/>
    <text x="70" y="35" text-anchor="middle" fill="white" font-size="14" font-weight="bold">Output</text>
    <text x="70" y="55" text-anchor="middle" fill="white" font-size="12">Clipboard/File</text>
  </g>
  
  <!-- Decision Points -->
  <g transform="translate(600, 200)">
    <polygon points="70,40 110,60 70,80 30,60" fill="#fbbf24" stroke="#f59e0b" stroke-width="2"/>
    <text x="70" y="67" text-anchor="middle" fill="white" font-size="11" font-weight="bold">Valid?</text>
  </g>
  
  <!-- Success Path -->
  <path d="M 640 240 L 640 280 L 400 280" stroke="#10b981" stroke-width="2" stroke-dasharray="5,5"/>
  <text x="520" y="295" text-anchor="middle" fill="#10b981" font-size="12">Success</text>
  
  <!-- Retry Path -->
  <path d="M 600 220 L 520 220 L 520 190" stroke="#ef4444" stroke-width="2" stroke-dasharray="5,5"/>
  <text x="560" y="210" text-anchor="middle" fill="#ef4444" font-size="12">Retry</text>
  
  <!-- Technical Details -->
  <g transform="translate(50, 400)">
    <rect x="0" y="0" width="700" height="150" rx="8" fill="#f1f5f9" stroke="#cbd5e1" stroke-width="1"/>
    <text x="20" y="30" fill="#1e293b" font-size="16" font-weight="bold">Technical Implementation Details</text>
    
    <text x="20" y="60" fill="#475569" font-size="12">• DOM Traversal: querySelectorAll(), getElementsBy*(), TreeWalker API</text>
    <text x="20" y="80" fill="#475569" font-size="12">• Analysis: Element properties, computed styles, accessibility attributes</text>
    <text x="20" y="100" fill="#475569" font-size="12">• Generation: CSS selectors (id, class, attribute), XPath expressions</text>
    <text x="20" y="120" fill="#475569" font-size="12">• Validation: Uniqueness testing, element matching, fallback strategies</text>
  </g>
  
  <!-- Arrow marker definition -->
  <defs>
    <marker id="arrowhead" markerWidth="10" markerHeight="7" refX="9" refY="3.5" orient="auto">
      <polygon points="0 0, 10 3.5, 0 7" fill="#64748b"/>
    </marker>
  </defs>
</svg>
