<svg width="128" height="128" viewBox="0 0 128 128" xmlns="http://www.w3.org/2000/svg">
  <defs>
    <linearGradient id="aiGradient" x1="0%" y1="0%" x2="100%" y2="100%">
      <stop offset="0%" style="stop-color:#59f9d6;stop-opacity:1" />
      <stop offset="50%" style="stop-color:#18aaff;stop-opacity:1" />
      <stop offset="100%" style="stop-color:#ffc366;stop-opacity:1" />
    </linearGradient>
    <linearGradient id="bgGradient" x1="0%" y1="0%" x2="100%" y2="100%">
      <stop offset="0%" style="stop-color:#21264a;stop-opacity:1" />
      <stop offset="100%" style="stop-color:#121327;stop-opacity:1" />
    </linearGradient>
    <filter id="glow">
      <feGaussianBlur stdDeviation="3" result="coloredBlur"/>
      <feMerge> 
        <feMergeNode in="coloredBlur"/>
        <feMergeNode in="SourceGraphic"/>
      </feMerge>
    </filter>
  </defs>
  
  <!-- Background -->
  <rect width="128" height="128" rx="24" fill="url(#bgGradient)"/>
  
  <!-- Border -->
  <rect x="2" y="2" width="124" height="124" rx="22" fill="none" stroke="url(#aiGradient)" stroke-width="2" opacity="0.6"/>
  
  <!-- Main Element Icon (Browser/Window frame) -->
  <rect x="20" y="28" width="88" height="64" rx="8" fill="none" stroke="url(#aiGradient)" stroke-width="3" filter="url(#glow)"/>
  
  <!-- Element selector boxes -->
  <rect x="28" y="40" width="24" height="16" rx="2" fill="#ff6b35" opacity="0.8"/>
  <rect x="60" y="40" width="32" height="16" rx="2" fill="#59f9d6" opacity="0.6"/>
  <rect x="28" y="64" width="48" height="12" rx="2" fill="#18aaff" opacity="0.7"/>
  
  <!-- AI Brain/Circuit pattern -->
  <circle cx="85" cy="50" r="8" fill="none" stroke="#ffc366" stroke-width="2" opacity="0.8"/>
  <circle cx="85" cy="50" r="3" fill="#ffc366"/>
  
  <!-- Connection lines (representing element extraction) -->
  <line x1="85" y1="42" x2="85" y2="32" stroke="#59f9d6" stroke-width="2" opacity="0.6"/>
  <line x1="93" y1="50" x2="103" y2="50" stroke="#59f9d6" stroke-width="2" opacity="0.6"/>
  <line x1="85" y1="58" x2="85" y2="68" stroke="#59f9d6" stroke-width="2" opacity="0.6"/>
  
  <!-- Magic sparkles -->
  <circle cx="32" cy="20" r="2" fill="#ffc366" opacity="0.8"/>
  <circle cx="96" cy="24" r="1.5" fill="#59f9d6" opacity="0.9"/>
  <circle cx="108" cy="76" r="2" fill="#ff6b35" opacity="0.7"/>
  <circle cx="24" cy="100" r="1.5" fill="#18aaff" opacity="0.8"/>
  
  <!-- Extract arrow -->
  <path d="M 70 76 L 74 80 L 70 84 M 58 80 L 74 80" stroke="#ffe682" stroke-width="2.5" fill="none" stroke-linecap="round" stroke-linejoin="round" opacity="0.9"/>
</svg>
